<svg xmlns="http://www.w3.org/2000/svg" viewBox="0 0 220 220" fill="none">
  <circle cx="110" cy="110" r="100" fill="#fff"/>
  <circle cx="110" cy="110" r="96" stroke="#102A56" stroke-width="8"/>
  <path d="M110 48c11 0 22 4 30 12l-18 18c-3-3-8-5-12-5s-9 2-12 5L80 60c8-8 19-12 30-12Z" fill="#FF5047"/>
  <path d="M61 86c0-11 4-22 12-30l18 18c-3 3-5 8-5 12s2 9 5 12L73 116c-8-8-12-19-12-30Z" fill="#FFC938"/>
  <path d="M110 172c-11 0-22-4-30-12l18-18c3 3 8 5 12 5s9-2 12-5l18 18c-8 8-19 12-30 12Z" fill="#68B738"/>
  <path d="M159 86c0 11-4 22-12 30l-18-18c3-3 5-8 5-12s-2-9-5-12l18-18c8 8 12 19 12 30Z" fill="#2676E3"/>
  <path d="M78 126V94c0-18 14-32 32-32h18v20h-16c-8 0-14 6-14 14v30c0 8 6 14 14 14h16v20h-18c-18 0-32-14-32-32Z" fill="#2676E3"/>
  <path d="M130 62h12v96h-12z" fill="#68B738"/>
  <circle cx="110" cy="110" r="16" fill="#102A56"/>
</svg>
